# xmcd CD database file generated by Grip 3.3.1
# 
# Track frame offsets:
#       150
#       15322
#       30350
#       49260
#       64830
#       79522
#       92465
#       108927
#       126232
#       143920
#       157567
#       172662
#       179987
#       192002
#       204847
# 
# Disc length: 2952 seconds
# 
# Revision: 4
# Processed by: cddbd v1.5.2PL0 Copyright (c) Steve Scherf et al.
# Submitted via: Grip 3.3.1
# 
DISCID=ae0b860f
DTITLE=Trailer Park Troubadours - Doublewide and Dangerous
DYEAR=1999
DGENRE=Folk/Rock
TTITLE0=One Less Trailer (Here in Pine View Heights)
TTITLE1=Having a Good Time Tonight
TTITLE2=Aunt Beula's Roadkill Overcoat
TTITLE3=It Ain't Home 'Til You Take the Wheels Off
TTITLE4=The Croquet King
TTITLE5=Skinny Women Ain't Hip
TTITLE6=Folkabilly Shuffle
TTITLE7=Trailer Park Princess
TTITLE8=Trailer Park in Heaven
TTITLE9=Mud Wrasslin' at Pinky's
TTITLE10=Run With the Scissors
TTITLE11=Wreck of the Bookmobile
TTITLE12=The Clapper Song
TTITLE13=Redneck Aphrodisiac
TTITLE14=It Ain't Home 'Til You Take the Wheels Off (Reprise)
EXTD=LABEL =Riostar Entertainment\nID =RSCD1004-2\nUPC =660591-1004
EXTD=20\nCOPYRIGHT =1999
EXTT0=
EXTT1=
EXTT2=
EXTT3=
EXTT4=
EXTT5=
EXTT6=
EXTT7=
EXTT8=
EXTT9=
EXTT10=
EXTT11=
EXTT12=
EXTT13=
EXTT14=
PLAYORDER=
